<svg width="128" height="128" viewBox="0 0 128 128" fill="none" xmlns="http://www.w3.org/2000/svg">
<rect width="128" height="128" fill="#231E23"/>
<rect width="128" height="128" fill="#231E23"/>
<path d="M49.8613 81.2383C49.9788 81.0775 50.1056 80.9569 50.2417 80.8765C50.384 80.7961 50.5355 80.7559 50.6963 80.7559C50.9746 80.7559 51.2004 80.8517 51.3735 81.0435C51.5529 81.2352 51.6426 81.5599 51.6426 82.0176V83.6318C51.6426 84.0895 51.5529 84.4173 51.3735 84.6152C51.2004 84.807 50.9746 84.9028 50.6963 84.9028C50.4427 84.9028 50.2386 84.8317 50.084 84.6895C49.9294 84.5472 49.8149 84.2812 49.7407 83.8916C49.6974 83.6318 49.6108 83.4308 49.481 83.2886C49.2274 83.0103 48.8717 82.7876 48.4141 82.6206C47.9626 82.4536 47.508 82.3701 47.0503 82.3701C46.4813 82.3701 45.9587 82.4938 45.4824 82.7412C45.0062 82.9886 44.5856 83.3906 44.2207 83.9473C43.8558 84.5039 43.6733 85.1657 43.6733 85.9326V87.1665C43.6733 88.0819 44.0042 88.8457 44.666 89.458C45.334 90.0703 46.2586 90.3765 47.4399 90.3765C48.145 90.3765 48.7419 90.2806 49.2305 90.0889C49.515 89.9775 49.818 89.758 50.1396 89.4302C50.3376 89.2323 50.4922 89.1055 50.6035 89.0498C50.7148 88.988 50.8416 88.957 50.9839 88.957C51.2375 88.957 51.4601 89.0529 51.6519 89.2446C51.8436 89.4364 51.9395 89.6621 51.9395 89.9219C51.9395 90.1816 51.8096 90.46 51.5498 90.7568C51.1725 91.1898 50.687 91.5299 50.0933 91.7773C49.2954 92.1113 48.4141 92.2783 47.4492 92.2783C46.3236 92.2783 45.3092 92.0464 44.4062 91.5825C43.6764 91.2114 43.0549 90.627 42.5415 89.8291C42.0282 89.0251 41.7715 88.1499 41.7715 87.2036V85.9141C41.7715 84.9245 42.0003 84.0029 42.458 83.1494C42.9219 82.2897 43.562 81.6279 44.3784 81.1641C45.1948 80.7002 46.0607 80.4683 46.9761 80.4683C47.5265 80.4683 48.0399 80.5332 48.5161 80.6631C48.9985 80.7868 49.4469 80.9785 49.8613 81.2383ZM63.6289 86.3779C63.6289 88.0664 63.0908 89.4735 62.0146 90.5991C60.9447 91.7186 59.7046 92.2783 58.2944 92.2783C57.0265 92.2783 55.8823 91.8114 54.8618 90.8774C53.6001 89.7209 52.9692 88.221 52.9692 86.3779C52.9692 84.5348 53.6001 83.0319 54.8618 81.8691C55.8823 80.9352 57.0265 80.4683 58.2944 80.4683C59.7046 80.4683 60.9447 81.0311 62.0146 82.1567C63.0908 83.2762 63.6289 84.6833 63.6289 86.3779ZM61.7271 86.3779C61.7271 85.2214 61.3776 84.2658 60.6787 83.5112C59.9798 82.7505 59.1851 82.3701 58.2944 82.3701C57.41 82.3701 56.6183 82.7505 55.9194 83.5112C55.2205 84.272 54.8711 85.2275 54.8711 86.3779C54.8711 87.5283 55.2205 88.4839 55.9194 89.2446C56.6183 89.9992 57.41 90.3765 58.2944 90.3765C59.1851 90.3765 59.9798 89.9992 60.6787 89.2446C61.3776 88.4901 61.7271 87.5345 61.7271 86.3779ZM65.4473 90.0981V82.6577C65.0452 82.6515 64.7484 82.5618 64.5566 82.3887C64.3649 82.2093 64.269 81.9805 64.269 81.7021C64.269 81.4176 64.3649 81.1888 64.5566 81.0156C64.7546 80.8363 65.0824 80.7466 65.54 80.7466L69.52 80.7559C70.1385 80.7559 70.7415 80.8703 71.3291 81.0991C71.9229 81.328 72.3991 81.6187 72.7578 81.9712C73.0299 82.2371 73.3114 82.6021 73.6021 83.0659C73.8989 83.5298 74.1216 83.9906 74.27 84.4482C74.4185 84.9059 74.4927 85.4657 74.4927 86.1274V87.0366C74.4927 87.8407 74.3566 88.555 74.0845 89.1797C73.8123 89.7982 73.4536 90.3053 73.0083 90.7012C72.5692 91.0908 72.1548 91.3784 71.7651 91.564C71.1466 91.8547 70.3457 92 69.3623 92H65.54C65.0824 92 64.7546 91.9134 64.5566 91.7402C64.3649 91.5609 64.269 91.3289 64.269 91.0444C64.269 90.7661 64.3649 90.5373 64.5566 90.3579C64.7546 90.1785 65.0514 90.092 65.4473 90.0981ZM67.3491 90.0981H69.3716C70.1261 90.0981 70.6951 89.9899 71.0786 89.7734C71.5796 89.4889 71.9569 89.1271 72.2104 88.688C72.464 88.2489 72.5908 87.6799 72.5908 86.981V86.0811C72.5908 85.4811 72.4764 84.9554 72.2476 84.5039C71.8888 83.7988 71.4837 83.3164 71.0322 83.0566C70.5869 82.7907 70.0272 82.6577 69.353 82.6577H67.3491V90.0981ZM79.1592 87.3057V90.0981H84.0112V89.0684C84.0112 88.6107 84.0978 88.286 84.271 88.0942C84.4504 87.8963 84.6823 87.7974 84.9668 87.7974C85.2451 87.7974 85.4709 87.8963 85.644 88.0942C85.8234 88.286 85.9131 88.6107 85.9131 89.0684V92H76.9604C76.5028 92 76.175 91.9134 75.9771 91.7402C75.7853 91.5609 75.6895 91.3289 75.6895 91.0444C75.6895 90.7661 75.7884 90.5404 75.9863 90.3672C76.1842 90.1878 76.509 90.0981 76.9604 90.0981H77.2573V82.6577H76.9604C76.5028 82.6577 76.175 82.5711 75.9771 82.3979C75.7853 82.2186 75.6895 81.9867 75.6895 81.7021C75.6895 81.4176 75.7853 81.1888 75.9771 81.0156C76.175 80.8363 76.5028 80.7466 76.9604 80.7466L85.4956 80.7559V83.6504C85.4956 84.1019 85.409 84.4266 85.2358 84.6245C85.0627 84.8162 84.8338 84.9121 84.5493 84.9121C84.2648 84.9121 84.0329 84.8162 83.8535 84.6245C83.6803 84.4328 83.5938 84.1081 83.5938 83.6504V82.6577H79.1592V85.4038H80.8291C80.8291 84.909 80.8755 84.5905 80.9683 84.4482C81.16 84.1452 81.4321 83.9937 81.7847 83.9937C82.063 83.9937 82.2887 84.0926 82.4619 84.2905C82.6413 84.4823 82.731 84.807 82.731 85.2646V87.4541C82.731 87.8685 82.6815 88.1468 82.5825 88.2891C82.3846 88.5798 82.1187 88.7251 81.7847 88.7251C81.4321 88.7251 81.16 88.5736 80.9683 88.2705C80.8755 88.1283 80.8291 87.8066 80.8291 87.3057H79.1592ZM25.8794 108.098V100.658H25.5825C25.1248 100.658 24.797 100.571 24.5991 100.398C24.4074 100.219 24.3115 99.9867 24.3115 99.7021C24.3115 99.4176 24.4074 99.1888 24.5991 99.0156C24.797 98.8363 25.1248 98.7466 25.5825 98.7466H30.3511C31.4891 98.7466 32.4045 99.0651 33.0972 99.7021C33.7899 100.333 34.1362 101.084 34.1362 101.957C34.1362 102.371 34.0558 102.761 33.895 103.125C33.7342 103.49 33.4899 103.827 33.1621 104.137C33.762 104.495 34.2104 104.916 34.5073 105.398C34.8104 105.875 34.9619 106.416 34.9619 107.022C34.9619 107.504 34.8537 107.953 34.6372 108.367C34.4764 108.683 34.2785 108.933 34.0435 109.119C33.728 109.378 33.3415 109.592 32.8838 109.759C32.4261 109.92 31.854 110 31.1675 110H25.5825C25.1248 110 24.797 109.913 24.5991 109.74C24.4074 109.561 24.3115 109.329 24.3115 109.044C24.3115 108.766 24.4105 108.54 24.6084 108.367C24.8063 108.188 25.131 108.098 25.5825 108.098H25.8794ZM27.7812 103.422H29.8687C30.617 103.422 31.2386 103.234 31.7334 102.856C32.0674 102.603 32.2344 102.287 32.2344 101.91C32.2344 101.576 32.0767 101.285 31.7612 101.038C31.4458 100.785 30.9448 100.658 30.2583 100.658H27.7812V103.422ZM27.7812 108.098H31.0654C31.8385 108.098 32.3828 107.984 32.6982 107.755C32.9395 107.582 33.0601 107.334 33.0601 107.013C33.0601 106.629 32.8219 106.252 32.3457 105.881C31.8695 105.51 31.186 105.324 30.2954 105.324H27.7812V108.098ZM45.5195 100.658V106.048C45.5195 107.223 45.0959 108.222 44.2485 109.044C43.4074 109.867 42.3931 110.278 41.2056 110.278C40.618 110.278 40.0645 110.176 39.5449 109.972C39.0316 109.762 38.5677 109.456 38.1533 109.054C37.7451 108.652 37.4266 108.234 37.1978 107.801C36.9689 107.362 36.8545 106.778 36.8545 106.048V100.658C36.4525 100.658 36.1556 100.568 35.9639 100.389C35.7721 100.209 35.6763 99.9805 35.6763 99.7021C35.6763 99.4176 35.7721 99.1888 35.9639 99.0156C36.1556 98.8424 36.4834 98.7559 36.9473 98.7559L39.4429 98.7466C39.9006 98.7466 40.2253 98.8363 40.417 99.0156C40.6149 99.1888 40.7139 99.4176 40.7139 99.7021C40.7139 99.9867 40.6149 100.219 40.417 100.398C40.2253 100.571 39.9006 100.658 39.4429 100.658H38.7563V106.215C38.7563 106.784 38.9914 107.288 39.4614 107.727C39.9377 108.16 40.5098 108.376 41.1777 108.376C41.623 108.376 42.0405 108.271 42.4302 108.061C42.8198 107.851 43.1383 107.545 43.3857 107.143C43.5404 106.889 43.6177 106.58 43.6177 106.215V100.658H42.9312C42.4735 100.658 42.1457 100.571 41.9478 100.398C41.756 100.219 41.6602 99.9867 41.6602 99.7021C41.6602 99.4176 41.756 99.1888 41.9478 99.0156C42.1457 98.8363 42.4735 98.7466 42.9312 98.7466L45.4268 98.7559C45.8844 98.7559 46.2091 98.8424 46.4009 99.0156C46.5988 99.1888 46.6978 99.4176 46.6978 99.7021C46.6978 99.9805 46.6019 100.209 46.4102 100.389C46.2184 100.568 45.9215 100.658 45.5195 100.658ZM53.5352 100.658V108.098H55.4556C55.9132 108.098 56.238 108.188 56.4297 108.367C56.6276 108.54 56.7266 108.769 56.7266 109.054C56.7266 109.332 56.6276 109.561 56.4297 109.74C56.238 109.913 55.9132 110 55.4556 110H49.7129C49.2552 110 48.9274 109.913 48.7295 109.74C48.5378 109.561 48.4419 109.329 48.4419 109.044C48.4419 108.766 48.5378 108.54 48.7295 108.367C48.9274 108.188 49.2552 108.098 49.7129 108.098H51.6333V100.658H49.7129C49.2552 100.658 48.9274 100.571 48.7295 100.398C48.5378 100.219 48.4419 99.9867 48.4419 99.7021C48.4419 99.4176 48.5378 99.1888 48.7295 99.0156C48.9274 98.8363 49.2552 98.7466 49.7129 98.7466L55.4556 98.7559C55.9132 98.7559 56.238 98.8424 56.4297 99.0156C56.6276 99.1888 56.7266 99.4176 56.7266 99.7021C56.7266 99.9867 56.6276 100.219 56.4297 100.398C56.238 100.571 55.9132 100.658 55.4556 100.658H53.5352ZM63.2021 100.658V108.098H67.3027V106.298C67.3027 105.841 67.3893 105.516 67.5625 105.324C67.7419 105.126 67.9738 105.027 68.2583 105.027C68.5366 105.027 68.7624 105.126 68.9355 105.324C69.1149 105.516 69.2046 105.841 69.2046 106.298V110H60.1963C59.7386 110 59.4108 109.913 59.2129 109.74C59.0212 109.561 58.9253 109.329 58.9253 109.044C58.9253 108.766 59.0212 108.54 59.2129 108.367C59.4108 108.188 59.7386 108.098 60.1963 108.098H61.3003V100.658H60.1963C59.7386 100.658 59.4108 100.571 59.2129 100.398C59.0212 100.219 58.9253 99.9867 58.9253 99.7021C58.9253 99.4176 59.0212 99.1888 59.2129 99.0156C59.4108 98.8363 59.7386 98.7466 60.1963 98.7466L64.3154 98.7559C64.7731 98.7559 65.0978 98.8424 65.2896 99.0156C65.4875 99.1888 65.5864 99.4176 65.5864 99.7021C65.5864 99.9867 65.4875 100.219 65.2896 100.398C65.0978 100.571 64.7731 100.658 64.3154 100.658H63.2021ZM71.1528 108.098V100.658C70.7508 100.652 70.4539 100.562 70.2622 100.389C70.0705 100.209 69.9746 99.9805 69.9746 99.7021C69.9746 99.4176 70.0705 99.1888 70.2622 99.0156C70.4601 98.8363 70.7879 98.7466 71.2456 98.7466L75.2256 98.7559C75.8441 98.7559 76.4471 98.8703 77.0347 99.0991C77.6284 99.328 78.1047 99.6187 78.4634 99.9712C78.7355 100.237 79.0169 100.602 79.3076 101.066C79.6045 101.53 79.8271 101.991 79.9756 102.448C80.124 102.906 80.1982 103.466 80.1982 104.127V105.037C80.1982 105.841 80.0622 106.555 79.79 107.18C79.5179 107.798 79.1592 108.305 78.7139 108.701C78.2747 109.091 77.8604 109.378 77.4707 109.564C76.8522 109.855 76.0513 110 75.0679 110H71.2456C70.7879 110 70.4601 109.913 70.2622 109.74C70.0705 109.561 69.9746 109.329 69.9746 109.044C69.9746 108.766 70.0705 108.537 70.2622 108.358C70.4601 108.179 70.757 108.092 71.1528 108.098ZM73.0547 108.098H75.0771C75.8317 108.098 76.4007 107.99 76.7842 107.773C77.2852 107.489 77.6624 107.127 77.916 106.688C78.1696 106.249 78.2964 105.68 78.2964 104.981V104.081C78.2964 103.481 78.182 102.955 77.9531 102.504C77.5944 101.799 77.1893 101.316 76.7378 101.057C76.2925 100.791 75.7327 100.658 75.0586 100.658H73.0547V108.098ZM84.8647 105.306V108.098H89.7168V107.068C89.7168 106.611 89.8034 106.286 89.9766 106.094C90.1559 105.896 90.3879 105.797 90.6724 105.797C90.9507 105.797 91.1764 105.896 91.3496 106.094C91.529 106.286 91.6187 106.611 91.6187 107.068V110H82.666C82.2083 110 81.8805 109.913 81.6826 109.74C81.4909 109.561 81.395 109.329 81.395 109.044C81.395 108.766 81.494 108.54 81.6919 108.367C81.8898 108.188 82.2145 108.098 82.666 108.098H82.9629V100.658H82.666C82.2083 100.658 81.8805 100.571 81.6826 100.398C81.4909 100.219 81.395 99.9867 81.395 99.7021C81.395 99.4176 81.4909 99.1888 81.6826 99.0156C81.8805 98.8363 82.2083 98.7466 82.666 98.7466L91.2012 98.7559V101.65C91.2012 102.102 91.1146 102.427 90.9414 102.625C90.7682 102.816 90.5394 102.912 90.2549 102.912C89.9704 102.912 89.7384 102.816 89.5591 102.625C89.3859 102.433 89.2993 102.108 89.2993 101.65V100.658H84.8647V103.404H86.5347C86.5347 102.909 86.5811 102.59 86.6738 102.448C86.8656 102.145 87.1377 101.994 87.4902 101.994C87.7686 101.994 87.9943 102.093 88.1675 102.291C88.3468 102.482 88.4365 102.807 88.4365 103.265V105.454C88.4365 105.868 88.387 106.147 88.2881 106.289C88.0902 106.58 87.8242 106.725 87.4902 106.725C87.1377 106.725 86.8656 106.574 86.6738 106.271C86.5811 106.128 86.5347 105.807 86.5347 105.306H84.8647ZM96.2666 105.705V108.098H96.9531C97.4108 108.098 97.7355 108.188 97.9272 108.367C98.1252 108.54 98.2241 108.769 98.2241 109.054C98.2241 109.332 98.1252 109.561 97.9272 109.74C97.7355 109.913 97.4108 110 96.9531 110H94.0679C93.6102 110 93.2824 109.913 93.0845 109.74C92.8927 109.561 92.7969 109.329 92.7969 109.044C92.7969 108.766 92.8958 108.54 93.0938 108.367C93.2917 108.188 93.6164 108.098 94.0679 108.098H94.3647V100.658H94.0679C93.6102 100.658 93.2824 100.571 93.0845 100.398C92.8927 100.219 92.7969 99.9867 92.7969 99.7021C92.7969 99.4176 92.8927 99.1888 93.0845 99.0156C93.2824 98.8363 93.6102 98.7466 94.0679 98.7466L98.3726 98.7559C99.7147 98.7559 100.754 99.0898 101.49 99.7578C102.232 100.42 102.603 101.227 102.603 102.179C102.603 102.773 102.43 103.314 102.083 103.803C101.737 104.285 101.215 104.715 100.516 105.092C100.918 105.445 101.347 105.896 101.805 106.447C102.09 106.799 102.473 107.35 102.956 108.098C103.438 108.098 103.757 108.148 103.911 108.247C104.189 108.438 104.329 108.707 104.329 109.054C104.329 109.332 104.233 109.561 104.041 109.74C103.849 109.913 103.525 110 103.067 110H101.981C100.441 107.619 99.1642 106.187 98.1499 105.705H96.2666ZM96.2666 103.803H97.751C98.3014 103.803 98.7931 103.719 99.2261 103.552C99.8075 103.33 100.197 103.095 100.395 102.847C100.599 102.6 100.701 102.355 100.701 102.114C100.701 101.756 100.509 101.425 100.126 101.122C99.7425 100.812 99.1828 100.658 98.4468 100.658H96.2666V103.803Z" fill="white"/>
<path d="M49.1051 52.3909C49.3961 52.4588 49.7913 52.8093 49.9054 53.1291L50.4842 54.4923C50.6148 54.754 50.59 55.2724 50.4345 55.5212L48.1245 59.2103C47.6301 60.0017 47.7326 61.1227 48.3973 61.8495L50.3535 63.7587C51.0348 64.3498 52.237 64.4565 53.0208 63.9929L56.7976 61.7365C57.034 61.5943 57.5417 61.5442 57.8972 61.7074L59.2912 62.2695C59.5723 62.3648 59.9311 62.7492 60.0006 63.0335L61.0374 67.2394C61.2573 68.131 62.1287 68.8643 63.0647 68.9483C63.0647 68.9483 63.6385 69 64.4983 69C65.3582 69 65.932 68.9483 65.9337 68.9483C66.4074 68.8937 66.8536 68.7018 67.2147 68.3972C67.5757 68.0926 67.8351 67.6893 67.9593 67.2394L68.9978 63.0335C69.0672 62.7508 69.4244 62.3648 69.7518 62.2533L71.1474 61.688C71.3938 61.5701 71.9643 61.5943 72.2008 61.7365L75.9776 63.9929C76.31 64.1916 76.7068 64.2965 77.1285 64.2965C77.699 64.2965 78.2513 64.1011 78.6795 63.728L80.6341 61.8172C80.944 61.46 81.1333 61.018 81.1762 60.5516C81.2191 60.0853 81.1135 59.6174 80.8739 59.2119L78.5638 55.5228C78.4084 55.274 78.3836 54.7556 78.534 54.4487L79.1095 53.0871C79.207 52.8125 79.6006 52.462 79.8916 52.3941L84.1976 51.3814C84.6582 51.2596 85.071 51.0059 85.3828 50.653C85.6945 50.3001 85.8911 49.8641 85.9471 49.4012C85.9471 49.4012 86 48.8407 86 48.0008C86 47.1609 85.9471 46.6004 85.9471 46.5988C85.8909 46.136 85.6942 45.7001 85.3825 45.3473C85.0707 44.9944 84.6581 44.7406 84.1976 44.6186L79.8933 43.6075C79.6023 43.5396 79.207 43.1891 79.0929 42.8693L78.5142 41.5061C78.3836 41.2444 78.4084 40.726 78.5638 40.4772L80.8739 36.7881C81.3683 35.9967 81.2658 34.8757 80.601 34.1489L78.6448 32.2397C77.9619 31.6469 76.7581 31.5403 75.9776 32.0055L72.2008 34.2619C71.9643 34.4025 71.455 34.4558 71.1011 34.291L69.7072 33.7289C69.426 33.6336 69.0689 33.2492 68.9994 32.9649L67.961 28.759C67.8362 28.309 67.5765 27.9058 67.2152 27.6013C66.8539 27.2968 66.4076 27.1048 65.9337 27.0501C65.9304 27.0517 65.3566 27 64.4967 27C63.6368 27 63.063 27.0517 63.0614 27.0517C62.5875 27.1066 62.1413 27.2987 61.7801 27.6032C61.4188 27.9077 61.159 28.3107 61.0341 28.7606L59.9989 32.9633C59.9295 33.2476 59.5706 33.6336 59.2432 33.7451L57.8476 34.3104C57.5996 34.4283 57.0307 34.4025 56.7943 34.2619L53.0191 32.0055C52.237 31.5403 51.0596 31.6211 50.3171 32.2704L48.3626 34.1812C48.0527 34.5384 47.8634 34.9804 47.8205 35.4468C47.7776 35.9131 47.8832 36.381 48.1228 36.7865L50.4329 40.4756C50.5883 40.7243 50.6131 41.2428 50.4627 41.5497L49.8872 42.9113C49.7896 43.1859 49.3961 43.5364 49.1051 43.6042L44.7991 44.617C44.3385 44.7388 43.9257 44.9925 43.6139 45.3454C43.3022 45.6983 43.1056 46.1343 43.0496 46.5972C43.0529 46.5972 43 47.1577 43 47.9976C43 48.8375 43.0529 49.398 43.0529 49.3996C43.1091 49.8624 43.3058 50.2983 43.6175 50.6511C43.9293 51.004 44.3419 51.2578 44.8024 51.3798L49.1051 52.3909ZM44.6536 47.9976C44.6536 47.2578 44.6982 46.7587 44.6999 46.7426C44.7262 46.6169 44.785 46.4999 44.8707 46.4026C44.9564 46.3054 45.0661 46.2311 45.1894 46.1869L49.4953 45.1742C50.3304 44.9772 51.1721 44.2309 51.4333 43.4831L51.9691 42.2119C52.3461 41.4576 52.2932 40.3496 51.8451 39.6325L49.535 35.945C49.4242 35.7657 49.4556 35.4103 49.5648 35.2892L51.4515 33.4446C51.602 33.3138 51.9856 33.2815 52.1576 33.3833L55.9344 35.6397C56.6504 36.0677 57.8774 36.0968 58.5272 35.7818L59.8303 35.2553C60.6422 34.9823 61.4061 34.1602 61.6079 33.3429L62.643 29.1385C62.6879 29.0177 62.7638 28.9102 62.8633 28.8262C62.9629 28.7422 63.0829 28.6845 63.2119 28.6588C63.2284 28.6588 63.7393 28.6152 64.4967 28.6152C65.254 28.6152 65.765 28.6588 65.7815 28.6604C65.9102 28.6862 66.03 28.7436 66.1296 28.8273C66.2291 28.9109 66.3051 29.0181 66.3504 29.1385L67.3872 33.3429C67.5889 34.1586 68.3512 34.9823 69.1185 35.2375L70.4199 35.7608C71.1756 36.1226 72.3463 36.0661 73.0606 35.6397L76.8358 33.3833C77.0078 33.2815 77.4146 33.3348 77.5072 33.4123L79.3956 35.2553C79.5378 35.412 79.5692 35.7657 79.4584 35.945L77.1483 39.6341C76.7002 40.3496 76.6473 41.4593 77.0028 42.1667L77.5419 43.4395C77.8213 44.2326 78.663 44.9788 79.4997 45.1758L83.804 46.1869C83.9277 46.2308 84.0378 46.3049 84.1238 46.4022C84.2098 46.4994 84.2688 46.6166 84.2951 46.7426C84.2951 46.7587 84.3398 47.2578 84.3398 47.9976C84.3398 48.7373 84.2951 49.2364 84.2935 49.2526C84.2671 49.3783 84.2084 49.4953 84.1227 49.5925C84.037 49.6898 83.9273 49.764 83.804 49.8082L79.4981 50.8209C78.663 51.018 77.8213 51.7642 77.5601 52.5121L77.0243 53.7832C76.6473 54.5375 76.7002 55.6455 77.1483 56.3627L79.4584 60.0502C79.5692 60.2295 79.5378 60.5848 79.4286 60.706L77.5419 62.5505C77.4223 62.6378 77.276 62.6828 77.1268 62.6781C77.0261 62.6813 76.9262 62.6585 76.8374 62.6119L73.0606 60.3555C72.3463 59.929 71.1193 59.8984 70.4678 60.2133L69.1648 60.7399C68.3529 61.0128 67.5889 61.8366 67.3888 62.6523L66.352 66.8566C66.3071 66.9775 66.2313 67.085 66.1317 67.169C66.0321 67.253 65.9121 67.3106 65.7832 67.3363C65.765 67.3363 65.254 67.38 64.4967 67.38C63.7393 67.38 63.2284 67.3363 63.2119 67.3347C63.0832 67.309 62.9634 67.2516 62.8638 67.1679C62.7643 67.0842 62.6883 66.9771 62.643 66.8566L61.6062 62.6507C61.4045 61.835 60.6405 61.0128 59.8749 60.7576L58.5735 60.2343C58.2035 60.0663 57.7992 59.9823 57.3912 59.9888C56.8472 59.9888 56.3296 60.1196 55.9327 60.3571L52.1576 62.6135C51.9856 62.7153 51.5772 62.6603 51.4862 62.5844L49.5978 60.7399C49.4556 60.5832 49.4242 60.2295 49.535 60.0502L51.8451 56.3611C52.2932 55.6455 52.3461 54.5359 51.9906 53.8284L51.4515 52.5557C51.1721 51.7626 50.3304 51.0164 49.4937 50.8193L45.1894 49.8082C45.0657 49.7644 44.9556 49.6903 44.8696 49.593C44.7836 49.4957 44.7246 49.3785 44.6982 49.2526C44.6982 49.2364 44.6536 48.7373 44.6536 47.9976V47.9976Z" fill="white"/>
<path d="M64.5 58C69.7388 58 74 53.7388 74 48.5C74 43.2612 69.7388 39 64.5 39C59.2612 39 55 43.2612 55 48.5C55 53.7388 59.2612 58 64.5 58ZM64.5 40.7273C68.7854 40.7273 72.2727 44.2146 72.2727 48.5C72.2727 52.7854 68.7854 56.2727 64.5 56.2727C60.2146 56.2727 56.7273 52.7854 56.7273 48.5C56.7273 44.2146 60.2146 40.7273 64.5 40.7273Z" fill="white"/>
<path d="M57.4773 53.3343C54.3034 50.5121 56.1549 45.6254 57.4773 43.5349L63 40L66.6024 40.0071C66.6024 40.5297 67.0785 41.575 68.9829 41.575C70.8872 41.575 72.1568 43.9268 72.5535 45.1028C72.818 46.6707 73.1883 50.1985 72.5535 51.7664C71.9188 53.3343 69.9086 55.2942 68.9829 56.0781C67.6604 56.6008 64.5394 57.5677 62.635 57.2541C60.2545 56.8621 61.4448 56.8621 57.4773 53.3343Z" fill="white"/>
<path d="M87.8363 25.3851C87.7431 25.4897 87.6156 25.5576 87.4768 25.5766L84.894 25.5516C84.5753 25.5601 84.2662 25.663 84.006 25.8473C83.7458 26.0316 83.5463 26.289 83.4326 26.5868C83.4326 26.5868 83.3188 26.9101 83.1939 27.4055C83.0689 27.9009 83.0162 28.2395 83.0162 28.2395C82.9191 28.8653 83.2674 29.5578 83.8267 29.8506L86.1042 31.044C86.2263 31.1364 86.3086 31.2719 86.3346 31.4228L86.4637 32.304C86.4719 32.4432 86.4306 32.5808 86.3471 32.6925L84.5123 34.4909C84.0529 34.9405 83.9322 35.7093 84.2486 36.3129L85.08 37.7005C85.4311 38.2168 86.1916 38.4804 86.7884 38.2945L89.3199 37.5202C89.4573 37.5202 89.5947 37.5729 89.6724 37.6353L90.3872 38.1626C90.4912 38.2563 90.559 38.3835 90.5787 38.522L90.5537 41.092C90.5482 41.7247 90.9923 42.3589 91.5891 42.5671C91.5891 42.5671 91.9124 42.6808 92.4079 42.8057C92.9034 42.9306 93.242 42.9833 93.242 42.9833C93.2781 42.9889 93.4224 43 93.4585 43C93.7431 42.9965 94.0218 42.9182 94.2666 42.773C94.5114 42.6279 94.7137 42.4209 94.8533 42.173L96.0469 39.8958C96.1394 39.7738 96.2748 39.6914 96.4258 39.6655L97.3459 39.5323C97.4847 39.5323 97.6485 39.6044 97.6943 39.6516L99.493 41.4861C99.9301 41.9329 100.667 42.0925 101.315 41.7497L102.702 40.9185C103.232 40.5577 103.489 39.8223 103.297 39.2103L102.531 36.7583C102.511 36.6059 102.549 36.4515 102.639 36.3268L103.167 35.6121C103.26 35.5075 103.387 35.4396 103.526 35.4206L106.109 35.4456C106.428 35.4372 106.737 35.3343 106.997 35.15C107.257 34.9657 107.457 34.7083 107.57 34.4104C107.57 34.4104 107.684 34.0871 107.809 33.5917C107.934 33.0963 107.987 32.7577 107.987 32.7577C108.028 32.439 107.973 32.1152 107.828 31.828C107.684 31.5409 107.457 31.3036 107.176 31.1466L104.899 29.9533C104.777 29.8608 104.694 29.7254 104.668 29.5744L104.541 28.696C104.532 28.5568 104.574 28.4192 104.657 28.3075L106.492 26.5091C106.951 26.0595 107.072 25.2907 106.756 24.6871L105.924 23.2995C105.573 22.7846 104.814 22.5182 104.216 22.7042L101.683 23.4785C101.556 23.4783 101.433 23.438 101.331 23.3633L100.616 22.836C100.512 22.7423 100.444 22.6151 100.424 22.4766L100.449 19.9066C100.444 19.5855 100.342 19.2733 100.158 19.0103C99.9733 18.7474 99.7141 18.5458 99.4139 18.4316C99.4139 18.4316 99.0905 18.3178 98.595 18.1929C98.0996 18.068 97.7609 18.0153 97.7609 18.0153C97.6889 18.0081 97.6167 18.003 97.5444 18C97.2598 18.0035 96.9812 18.0818 96.7364 18.227C96.4916 18.3721 96.2892 18.5791 96.1496 18.827L94.956 21.1042C94.8635 21.2262 94.7281 21.3086 94.5771 21.3345L93.657 21.4664C93.5313 21.4636 93.4096 21.4219 93.3086 21.347L91.51 19.5125C91.2749 19.2787 90.9707 19.1267 90.6425 19.0792C90.3142 19.0318 89.9794 19.0912 89.6877 19.2489L88.2998 20.0787C87.7697 20.4395 87.5129 21.175 87.7044 21.7869L88.4705 24.2389C88.491 24.3913 88.4523 24.5458 88.3623 24.6705L87.8363 25.3851V25.3851ZM88.9743 26.1788L89.4504 25.5322C89.8223 25.0923 89.9666 24.3749 89.7946 23.8268L89.0298 21.3762C89.0229 21.3373 89.0534 21.2499 89.0465 21.2485L90.3622 20.4603L90.519 20.4839L92.3191 22.3184C92.6383 22.6431 93.1643 22.854 93.6584 22.854C93.7534 22.8555 93.8484 22.8467 93.9415 22.8277L94.7395 22.7097C95.0393 22.6733 95.3263 22.5673 95.5777 22.4001C95.8291 22.2328 96.0378 22.0091 96.1871 21.7467L97.3792 19.4709C97.4222 19.4228 97.4816 19.3926 97.5458 19.3863C97.5611 19.3877 97.8442 19.4348 98.2578 19.5375C98.67 19.6416 98.942 19.7346 98.9545 19.7401C98.9975 19.7582 99.06 19.8484 99.0627 19.8928L99.0378 22.4627C99.0322 23.0372 99.3778 23.6824 99.8247 23.9739L100.47 24.4498C100.899 24.812 101.634 24.9646 102.176 24.794L104.638 24.028C104.696 24.028 104.761 24.0641 104.753 24.046L105.541 25.3615C105.557 25.3976 105.541 25.4892 105.518 25.5183L103.683 27.3181C103.274 27.7219 103.061 28.4213 103.174 28.9403L103.29 29.7382C103.34 30.3099 103.745 30.9191 104.255 31.1855L106.531 32.3775C106.579 32.4207 106.609 32.48 106.616 32.544C106.575 32.7833 106.524 33.0208 106.464 33.2559C106.407 33.4909 106.339 33.7233 106.262 33.9525C106.244 33.9955 106.153 34.0579 106.109 34.0607L103.525 34.0357C102.954 34.0357 102.316 34.3813 102.027 34.8225L101.553 35.4678C101.365 35.705 101.236 35.9831 101.177 36.2794C101.117 36.5757 101.128 36.8819 101.208 37.1732L101.973 39.6238C101.98 39.6613 101.949 39.7501 101.956 39.7515L100.641 40.5397L100.484 40.5161L98.6838 38.6816C98.3646 38.3569 97.8386 38.146 97.3446 38.146C97.2495 38.1445 97.1546 38.1533 97.0614 38.1723L96.2634 38.2903C95.9637 38.3267 95.6766 38.4327 95.4252 38.5999C95.1739 38.7672 94.9652 38.9909 94.8159 39.2533L93.6237 41.5291C93.5808 41.5772 93.5213 41.6074 93.4571 41.6137C93.2178 41.5731 92.9803 41.5226 92.7452 41.4625C92.5101 41.4049 92.2777 41.3373 92.0484 41.2599C92.0054 41.2418 91.943 41.1516 91.9402 41.1072L91.9652 38.5373C91.9707 37.9628 91.6252 37.3176 91.1783 37.0261L90.5329 36.5502C90.2954 36.3627 90.0171 36.2339 89.7205 36.1741C89.4239 36.1143 89.1174 36.1252 88.8258 36.206L86.3637 36.972C86.3041 36.972 86.2388 36.9401 86.2486 36.954L85.4602 35.6385C85.445 35.6024 85.4602 35.5108 85.4838 35.4817L87.3186 33.6819C87.728 33.2781 87.9404 32.5787 87.8279 32.0597L87.7114 31.2632C87.675 30.9634 87.5687 30.6762 87.4012 30.4249C87.2337 30.1735 87.0096 29.9649 86.7468 29.8159L84.4707 28.6239C84.423 28.5807 84.3929 28.5214 84.386 28.4574C84.3874 28.4421 84.4346 28.159 84.5373 27.7455C84.6414 27.3334 84.7344 27.0614 84.7399 27.0489C84.758 27.0059 84.8482 26.9434 84.8926 26.9407L87.4768 26.9656C88.0472 26.9656 88.6856 26.6201 88.9743 26.1788V26.1788Z" fill="white"/>
<path d="M95.5 35C97.981 35 100 33.2053 100 31C100 28.7947 97.981 27 95.5 27C93.019 27 91 28.7947 91 31C91 33.2053 93.019 35 95.5 35ZM95.5 28.3333C97.1545 28.3333 98.5 29.5293 98.5 31C98.5 32.4707 97.1545 33.6667 95.5 33.6667C93.8455 33.6667 92.5 32.4707 92.5 31C92.5 29.5293 93.8455 28.3333 95.5 28.3333Z" fill="white"/>
<path d="M93.0481 32.7359C91.7487 31.4521 92.5067 29.6333 93.0481 28.8844C93.2647 28.4565 94.0877 27.5364 95.647 27.2796C97.5962 26.9587 97.5962 27.6006 99.2205 29.2054C100.845 30.8102 98.5708 32.7359 98.2459 33.6988C97.9211 34.6617 94.6724 34.3408 93.0481 32.7359Z" fill="white"/>
<path d="M70.3913 48.9113L61.9791 53.768C61.7457 53.9028 61.4541 53.7344 61.4541 53.4649L61.4541 43.7514C61.4541 43.4819 61.7457 43.3135 61.9791 43.4482L70.3913 48.305C70.6246 48.4398 70.6246 48.7765 70.3913 48.9113Z" stroke="#231E23" stroke-width="1.3" stroke-linecap="round" stroke-linejoin="round"/>
</svg>
